<svg width="86.4000015258789" height="26.999910354750185" viewBox="0 0 320 99.99966621449857" class="css-1j8o68f"><defs id="SvgjsDefs1001"></defs><g id="SvgjsG1007" featurekey="symbolFeature-0" transform="matrix(1.2499980926542775,0,0,1.2499980926542775,-12.499908208987108,-12.50016093229533)" fill="#36506c"><path xmlns="http://www.w3.org/2000/svg" d="M49.2080078,28.487793c0.0742188,0.0166016,0.1479492,0.0244141,0.2211914,0.0244141  
                    c0.4570312,0,0.8696289-0.3149414,0.9746094-0.7797852c1.3583984-6.0151367,4.0048828-11.4301758,7.8666992-16.0947266  c0.3520508-0.425293,0.2924805-1.0556641-0.1328125-1.4082031c-0.425293-0.3515625-1.0556641-0.2924805-1.4082031,0.1328125  c-4.0634766,4.9091797-6.8481445,10.6049805-8.2768555,16.9296875  C48.3310547,27.8305664,48.6694336,28.3662109,49.2080078,28.487793z"></path><path xmlns="http://www.w3.org/2000/svg" d="M51.612793,36.418457c0.0146484,0,0.0292969-0.0004883,0.0444336-0.0009766  c0.5517578-0.0239258,0.9794922-0.4907227,0.9555664-1.0424805c-0.0498047-1.1455078-0.1411133-2.2963867-0.2724609-3.4208984  c-0.0639648-0.5488281-0.5722656-0.9477539-1.1088867-0.8774414c-0.5488281,0.0639648-0.9414062,0.5605469-0.8774414,1.1088867  c0.1254883,1.0766602,0.2133789,2.1787109,0.2607422,3.2763672C50.6381836,35.9990234,51.0805664,36.418457,51.612793,36.418457z"></path><path xmlns="http://www.w3.org/2000/svg" d="M50.7641602,45.7651367c0.0581055,0.0097656,0.1157227,0.0146484,0.1723633,0.0146484  c0.4770508,0,0.8994141-0.3422852,0.984375-0.8286133c0.2373047-1.3647461,0.4204102-2.7695312,0.543457-4.175293  c0.0483398-0.550293-0.3583984-1.0351562-0.9086914-1.0834961c-0.5517578-0.0493164-1.0351562,0.3583984-1.0834961,0.9086914  c-0.1186523,1.3496094-0.2939453,2.6977539-0.5219727,4.0073242C49.8554688,45.1523438,50.2202148,45.6704102,50.7641602,45.7651367  z"></path><path xmlns="http://www.w3.org/2000/svg" d="M40.8647461,30.4428711c0.0561523,0,0.1132812-0.0043945,0.1708984-0.0146484  c0.5439453-0.09375,0.9091797-0.6108398,0.8154297-1.1552734c-1.0463867-6.0766602-0.6733398-12.0922852,1.1088867-17.8798828  c0.1625977-0.527832-0.1333008-1.0874023-0.6611328-1.25c-0.5283203-0.1640625-1.0878906,0.1328125-1.25,0.6611328  c-1.8759766,6.0913086-2.269043,12.4189453-1.168457,18.8085938C39.9638672,30.0996094,40.3867188,30.4428711,40.8647461,30.4428711  z"></path><path xmlns="http://www.w3.org/2000/svg" d="M58.3798828,32.9882812c-0.5307617-0.1513672-1.0844727,0.1567383-1.2353516,0.6884766  c-0.2958984,1.0419922-0.637207,2.09375-1.0131836,3.1269531c-0.1889648,0.519043,0.078125,1.0927734,0.597168,1.2817383  c0.1132812,0.0415039,0.2285156,0.0610352,0.3422852,0.0610352c0.4082031,0,0.7919922-0.2524414,0.9394531-0.6582031  c0.3930664-1.078125,0.7490234-2.1767578,1.0581055-3.2646484C59.2192383,33.6923828,58.9111328,33.1391602,58.3798828,32.9882812z"></path><path xmlns="http://www.w3.org/2000/svg" d="M33.6953125,35.5029297c0.1826172,0,0.3671875-0.0498047,0.5332031-0.1542969  c0.4667969-0.2949219,0.6064453-0.9125977,0.3115234-1.3798828c-3.2924805-5.2133789-5.25-10.9135742-5.8183594-16.9428711  c-0.0522461-0.550293-0.5385742-0.9526367-1.0893555-0.9018555c-0.5498047,0.0517578-0.9536133,0.5395508-0.9018555,1.0893555  c0.5981445,6.3452148,2.6567383,12.3417969,6.1181641,17.8237305  C33.0390625,35.3378906,33.3637695,35.5029297,33.6953125,35.5029297z"></path><path xmlns="http://www.w3.org/2000/svg" d="M62.847168,37.6533203c-0.6733398,0.8510742-1.3911133,1.6923828-2.1328125,2.5014648  c-0.3730469,0.4072266-0.3457031,1.0395508,0.0615234,1.4130859c0.1918945,0.1757812,0.434082,0.2626953,0.675293,0.2626953  c0.2705078,0,0.5405273-0.1088867,0.737793-0.3242188c0.7739258-0.8442383,1.5229492-1.7231445,2.2265625-2.6118164  c0.3427734-0.4331055,0.2695312-1.0620117-0.1635742-1.4047852C63.8198242,37.1474609,63.1899414,37.2192383,62.847168,37.6533203z"></path><path xmlns="http://www.w3.org/2000/svg" d="M53.534668,47.5454102c0.1943359,0.2768555,0.5039062,0.4248047,0.8188477,0.4248047  c0.1987305,0,0.3994141-0.059082,0.5742188-0.1821289c1.1289062-0.793457,2.2514648-1.6572266,3.3374023-2.5678711  c0.4233398-0.3544922,0.4785156-0.9853516,0.1235352-1.4086914c-0.3544922-0.4228516-0.9848633-0.4790039-1.4086914-0.1235352  c-1.0424805,0.8740234-2.1201172,1.703125-3.2026367,2.4643555C53.3256836,46.4697266,53.2167969,47.09375,53.534668,47.5454102z"></path><path xmlns="http://www.w3.org/2000/svg" d="M28.4282227,42.7392578c0.175293,0.1235352,0.3764648,0.1831055,0.5756836,0.1831055  c0.3139648,0,0.6230469-0.1474609,0.8178711-0.4233398c0.3183594-0.4511719,0.2109375-1.0751953-0.2402344-1.3935547  c-5.0361328-3.5561523-9.0263672-8.0737305-11.8588867-13.4267578c-0.2573242-0.487793-0.862793-0.6743164-1.3515625-0.4160156  c-0.4882812,0.2583008-0.6743164,0.8632812-0.4160156,1.3515625C18.9360352,34.2475586,23.1323242,39,28.4282227,42.7392578z"></path><path xmlns="http://www.w3.org/2000/svg" d="M66.59375,43.5092773c-0.9438477,0.5268555-1.9291992,1.0297852-2.9272461,1.4951172  c-0.5004883,0.2329102-0.7172852,0.828125-0.4838867,1.3286133c0.1694336,0.3637695,0.5302734,0.5776367,0.9067383,0.5776367  c0.1416016,0,0.2851562-0.0297852,0.421875-0.09375c1.0419922-0.4853516,2.0703125-1.0107422,3.0571289-1.5605469  c0.4819336-0.269043,0.6552734-0.878418,0.3862305-1.3608398C67.6860352,43.4140625,67.078125,43.2402344,66.59375,43.5092773z"></path><path xmlns="http://www.w3.org/2000/svg" d="M27.2919922,51.5473633c0.0742188,0.0166016,0.1479492,0.0244141,0.2211914,0.0244141  c0.4570312,0,0.8696289-0.3149414,0.9746094-0.7797852c0.121582-0.5385742-0.2167969-1.0742188-0.7553711-1.1958008  c-6.0151367-1.3583984-11.4301758-4.0048828-16.0947266-7.8666992c-0.4248047-0.3520508-1.0561523-0.2929688-1.4082031,0.1328125  c-0.3520508,0.425293-0.2924805,1.0556641,0.1328125,1.4082031C15.2714844,47.3339844,20.9672852,50.1186523,27.2919922,51.5473633z  "></path><path xmlns="http://www.w3.org/2000/svg" d="M67.8144531,50.3540039c-1.0766602,0.1254883-2.1787109,0.2133789-3.2763672,0.2607422  c-0.5517578,0.0239258-0.9794922,0.4907227-0.9555664,1.0424805c0.0234375,0.5371094,0.4658203,0.956543,0.9980469,0.956543  c0.0146484,0,0.0292969-0.0004883,0.0444336-0.0009766c1.1455078-0.0498047,2.2963867-0.1411133,3.4208984-0.2724609  c0.5488281-0.0639648,0.9414062-0.5605469,0.8774414-1.1088867C68.859375,50.6821289,68.3525391,50.2885742,67.8144531,50.3540039z"></path><path xmlns="http://www.w3.org/2000/svg" d="M59.3989258,50.472168c-1.3496094-0.1186523-2.6977539-0.2939453-4.0073242-0.5219727  c-0.5449219-0.0883789-1.0615234,0.2700195-1.1567383,0.8139648c-0.0947266,0.5439453,0.2700195,1.0620117,0.8139648,1.1567383  c1.3647461,0.2373047,2.7695312,0.4204102,4.175293,0.543457c0.0297852,0.0029297,0.059082,0.0039062,0.0883789,0.0039062  c0.5131836,0,0.949707-0.3920898,0.9951172-0.9125977C60.355957,51.0053711,59.9492188,50.5205078,59.3989258,50.472168z"></path><path xmlns="http://www.w3.org/2000/svg" d="M29.2729492,58.1489258c-6.0771484,1.0463867-12.0917969,0.6738281-17.8798828-1.1088867  c-0.5288086-0.1635742-1.0874023,0.1333008-1.25,0.6611328s0.1333008,1.0874023,0.6611328,1.25  c3.8442383,1.184082,7.7827148,1.7773438,11.7709961,1.7773438c2.331543,0,4.6806641-0.2026367,7.0375977-0.6088867  c0.5439453-0.09375,0.9091797-0.6108398,0.8154297-1.1552734S29.8222656,58.050293,29.2729492,58.1489258z"></path><path xmlns="http://www.w3.org/2000/svg" d="M66.050293,59.1069336c0.4355469,0,0.8364258-0.2871094,0.9614258-0.7270508  c0.1508789-0.53125-0.1572266-1.0844727-0.6884766-1.2353516c-1.0419922-0.2958984-2.09375-0.637207-3.1269531-1.0131836  c-0.5200195-0.1914062-1.0932617,0.078125-1.2817383,0.597168c-0.1889648,0.519043,0.078125,1.0927734,0.597168,1.2817383  c1.078125,0.3930664,2.1767578,0.7490234,3.2646484,1.0581055C65.8676758,59.0942383,65.9599609,59.1069336,66.050293,59.1069336z"></path><path xmlns="http://www.w3.org/2000/svg" d="M16.1240234,72.3676758c0.0488281,0.5180664,0.484375,0.90625,0.9946289,0.90625  c0.03125,0,0.0629883-0.0014648,0.0947266-0.0043945c6.3452148-0.5981445,12.3417969-2.6567383,17.8237305-6.1181641  c0.4667969-0.2949219,0.6064453-0.9125977,0.3115234-1.3798828c-0.2958984-0.4663086-0.9125977-0.6069336-1.3798828-0.3115234  c-5.2133789,3.2924805-10.9135742,5.25-16.9428711,5.8183594C16.4760742,71.3300781,16.0722656,71.8178711,16.1240234,72.3676758z"></path><path xmlns="http://www.w3.org/2000/svg" d="M58.4321289,60.7758789c-0.3730469,0.4072266-0.3457031,1.0395508,0.0615234,1.4130859  c0.8442383,0.7739258,1.7231445,1.5229492,2.6118164,2.2265625c0.1835938,0.1455078,0.4023438,0.2158203,0.6201172,0.2158203  c0.2949219,0,0.5874023-0.1298828,0.784668-0.3793945c0.3427734-0.4331055,0.2695312-1.0620117-0.1635742-1.4047852  c-0.8510742-0.6733398-1.6923828-1.3911133-2.5014648-2.1328125C59.4384766,60.3413086,58.8061523,60.3686523,58.4321289,60.7758789  z"></path><path xmlns="http://www.w3.org/2000/svg" d="M52.4545898,53.534668c-0.4516602,0.3173828-0.5605469,0.9414062-0.2426758,1.3930664  c0.793457,1.1289062,1.6572266,2.2514648,2.5678711,3.3374023c0.1977539,0.2358398,0.480957,0.3574219,0.7666016,0.3574219  c0.2265625,0,0.4545898-0.0766602,0.6420898-0.2338867c0.4233398-0.3544922,0.4785156-0.9853516,0.1235352-1.4086914  c-0.8740234-1.0424805-1.703125-2.1201172-2.4643555-3.2026367C53.5302734,53.3256836,52.90625,53.2172852,52.4545898,53.534668z"></path><path xmlns="http://www.w3.org/2000/svg" d="M27.6787109,82.2773438c-0.4882812,0.2583008-0.6743164,0.8632812-0.4160156,1.3515625  c0.1791992,0.3388672,0.5258789,0.5322266,0.8847656,0.5322266c0.1577148,0,0.3178711-0.0371094,0.4667969-0.1162109  c5.6333008-2.980957,10.3857422-7.1772461,14.125-12.4731445c0.3183594-0.4511719,0.2109375-1.0751953-0.2402344-1.3935547  c-0.4511719-0.3188477-1.0751953-0.2104492-1.3935547,0.2402344C37.5493164,75.4545898,33.0317383,79.4448242,27.6787109,82.2773438  z"></path><path xmlns="http://www.w3.org/2000/svg" d="M54.9956055,63.6665039c-0.2329102-0.5009766-0.828125-0.7172852-1.3286133-0.4838867  c-0.5004883,0.2329102-0.7172852,0.828125-0.4838867,1.3286133c0.4853516,1.0419922,1.0107422,2.0703125,1.5605469,3.0571289  c0.1831055,0.328125,0.5234375,0.5126953,0.8745117,0.5126953c0.1645508,0,0.3320312-0.0405273,0.4863281-0.1264648  c0.4819336-0.269043,0.6552734-0.878418,0.3862305-1.3608398C55.9638672,65.6499023,55.4609375,64.6645508,54.9956055,63.6665039z"></path>
                    <path xmlns="http://www.w3.org/2000/svg" d="M41.8623047,89.7705078C42.0488281,89.9248047,42.2749023,90,42.4995117,90  c0.2875977,0,0.5732422-0.1235352,0.7709961-0.3623047c4.0634766-4.9091797,6.8481445-10.6049805,8.2768555-16.9296875  c0.121582-0.5385742-0.2167969-1.0742188-0.7553711-1.1958008c-0.5366211-0.1210938-1.0742188,0.2158203-1.1958008,0.7553711  c-1.3583984,6.0151367-4.0048828,11.4301758-7.8666992,16.0947266  C41.3774414,88.7875977,41.4370117,89.4179688,41.8623047,89.7705078z"></path>
                    <path xmlns="http://www.w3.org/2000/svg" d="M48.6513672,68.9301758c0.0390625,0,0.078125-0.0019531,0.1171875-0.0068359  c0.5488281-0.0639648,0.9414062-0.5605469,0.8774414-1.1088867c-0.1254883-1.0766602-0.2133789-2.1787109-0.2607422-3.2763672  c-0.0239258-0.5517578-0.4765625-0.9755859-1.0424805-0.9555664c-0.5517578,0.0239258-0.9794922,0.4907227-0.9555664,1.0424805  c0.0498047,1.1455078,0.1411133,2.2963867,0.2724609,3.4208984C47.71875,68.5551758,48.1508789,68.9301758,48.6513672,68.9301758z"></path><path xmlns="http://www.w3.org/2000/svg" d="M48.4443359,60.3076172c0.0297852,0.0029297,0.059082,0.0039062,0.0883789,0.0039062  c0.5126953,0,0.949707-0.3920898,0.9951172-0.9125977c0.1186523-1.3496094,0.2939453-2.6977539,0.5219727-4.0073242  c0.0947266-0.5439453-0.2700195-1.0620117-0.8139648-1.1567383c-0.5449219-0.0898438-1.0615234,0.2700195-1.1567383,0.8139648  c-0.2373047,1.3647461-0.4204102,2.7695312-0.543457,4.175293C47.4873047,59.7744141,47.894043,60.2592773,48.4443359,60.3076172z"></path><path xmlns="http://www.w3.org/2000/svg" d="M57.7011719,89.8569336c0.0981445,0.0302734,0.1972656,0.0449219,0.2949219,0.0449219  c0.4272461,0,0.8227539-0.2763672,0.9550781-0.7060547c1.8759766-6.0913086,2.269043-12.4189453,1.168457-18.8085938  c-0.09375-0.5439453-0.6064453-0.9150391-1.1552734-0.8154297c-0.5439453,0.09375-0.9091797,0.6108398-0.8154297,1.1552734  c1.0463867,6.0766602,0.6733398,12.0922852-1.1088867,17.8798828  C56.8774414,89.1347656,57.1733398,89.6943359,57.7011719,89.8569336z"></path><path xmlns="http://www.w3.org/2000/svg" d="M43.2714844,61.9145508c-0.5200195-0.1904297-1.0932617,0.0786133-1.2817383,0.597168  c-0.3930664,1.078125-0.7490234,2.1767578-1.0581055,3.2646484c-0.1508789,0.53125,0.1572266,1.0844727,0.6884766,1.2353516  c0.0913086,0.0258789,0.1835938,0.0385742,0.2739258,0.0385742c0.4355469,0,0.8364258-0.2871094,0.9614258-0.7270508  c0.2958984-1.0419922,0.637207-2.09375,1.0131836-3.1269531C44.0576172,62.6772461,43.7905273,62.1035156,43.2714844,61.9145508z"></path><path xmlns="http://www.w3.org/2000/svg" d="M65.7714844,64.6513672c-0.4667969,0.2949219-0.6064453,0.9125977-0.3115234,1.3798828  c3.2924805,5.2133789,5.25,10.9135742,5.8183594,16.9428711c0.0488281,0.5180664,0.484375,0.90625,0.9946289,0.90625  c0.03125,0,0.0629883-0.0014648,0.0947266-0.0043945c0.5498047-0.0517578,0.9536133-0.5395508,0.9018555-1.0893555  c-0.5981445-6.3452148-2.6567383-12.3417969-6.1181641-17.8237305  C66.855957,64.4960938,66.2382812,64.3564453,65.7714844,64.6513672z"></path><path xmlns="http://www.w3.org/2000/svg" d="M37.8110352,58.4936523c-0.7739258,0.8442383-1.5229492,1.7231445-2.2265625,2.6118164  c-0.3427734,0.4331055-0.2695312,1.0620117,0.1635742,1.4047852c0.1835938,0.1455078,0.4023438,0.2158203,0.6201172,0.2158203  c0.2949219,0,0.5874023-0.1298828,0.784668-0.3793945c0.6733398-0.8510742,1.3911133-1.6923828,2.1328125-2.5014648  c0.3730469-0.4072266,0.3457031-1.0395508-0.0615234-1.4130859C38.8173828,58.0595703,38.184082,58.0864258,37.8110352,58.4936523z"></path><path xmlns="http://www.w3.org/2000/svg" d="M45.0722656,52.2119141c-1.1289062,0.793457-2.2514648,1.6572266-3.3374023,2.5678711  c-0.4233398,0.3544922-0.4785156,0.9853516-0.1235352,1.4086914c0.1977539,0.2358398,0.480957,0.3574219,0.7666016,0.3574219  c0.2265625,0,0.4545898-0.0766602,0.6420898-0.2338867c1.0424805-0.8740234,2.1201172-1.703125,3.2026367-2.4643555  c0.4516602-0.3173828,0.5605469-0.9414062,0.2426758-1.3930664C46.1489258,52.0029297,45.5244141,51.8945312,45.0722656,52.2119141z  "></path><path xmlns="http://www.w3.org/2000/svg" d="M71.5717773,57.2607422c-0.4511719-0.3188477-1.0751953-0.2109375-1.3935547,0.2402344  s-0.2109375,1.0751953,0.2402344,1.3935547c5.0361328,3.5561523,9.0263672,8.0737305,11.8588867,13.4267578  c0.1791992,0.3388672,0.5258789,0.5322266,0.8847656,0.5322266c0.1577148,0,0.3178711-0.0371094,0.4667969-0.1162109  c0.4882812-0.2583008,0.6743164-0.8632812,0.4160156-1.3515625C81.0639648,65.7524414,76.8676758,61,71.5717773,57.2607422z"></path><path xmlns="http://www.w3.org/2000/svg" d="M36.8173828,53.6669922c-0.2333984-0.5004883-0.8286133-0.7182617-1.3286133-0.4838867  c-1.0419922,0.4853516-2.0703125,1.0107422-3.0571289,1.5605469c-0.4819336,0.269043-0.6552734,0.878418-0.3862305,1.3608398  c0.1831055,0.328125,0.5234375,0.5126953,0.8745117,0.5126953c0.1645508,0,0.3320312-0.0405273,0.4863281-0.1264648  c0.9438477-0.5268555,1.9291992-1.0297852,2.9272461-1.4951172C36.8339844,54.7626953,37.0507812,54.1674805,36.8173828,53.6669922z  "></path><path xmlns="http://www.w3.org/2000/svg" d="M89.6376953,56.7294922c-4.9091797-4.0634766-10.6049805-6.8481445-16.9296875-8.2768555  c-0.5380859-0.1210938-1.0742188,0.2158203-1.1958008,0.7553711c-0.121582,0.5385742,0.2167969,1.0742188,0.7553711,1.1958008  c6.0151367,1.3583984,11.4301758,4.0048828,16.0947266,7.8666992C88.5488281,58.4248047,88.7749023,58.5,88.9995117,58.5  c0.2875977,0,0.5732422-0.1235352,0.7709961-0.3623047C90.1225586,57.7124023,90.0629883,57.0820312,89.6376953,56.7294922z"></path><path xmlns="http://www.w3.org/2000/svg" d="M31.0766602,48.7685547c0.059082,0.5092773,0.4912109,0.8842773,0.9916992,0.8842773  c0.0390625,0,0.078125-0.0019531,0.1171875-0.0068359c1.0766602-0.1254883,2.1787109-0.2133789,3.2763672-0.2607422  c0.5517578-0.0239258,0.9794922-0.4907227,0.9555664-1.0424805S35.9477539,47.375,35.375,47.387207  c-1.1455078,0.0498047-2.2963867,0.1411133-3.4208984,0.2724609C31.4052734,47.7236328,31.0126953,48.2202148,31.0766602,48.7685547  z"></path><path xmlns="http://www.w3.org/2000/svg" d="M44.9511719,48.0791016c-1.3647461-0.2373047-2.7695312-0.4204102-4.175293-0.543457  c-0.5512695-0.0566406-1.0356445,0.3583984-1.0834961,0.9086914c-0.0483398,0.550293,0.3583984,1.0351562,0.9086914,1.0834961  c1.3496094,0.1186523,2.6977539,0.2939453,4.0073242,0.5219727c0.0581055,0.0097656,0.1157227,0.0146484,0.1723633,0.0146484  c0.4770508,0,0.8994141-0.3422852,0.984375-0.8286133C45.8598633,48.6918945,45.4951172,48.1738281,44.9511719,48.0791016z"></path><path xmlns="http://www.w3.org/2000/svg" d="M70.387207,39.8803711c-0.5439453,0.09375-0.9091797,0.6108398-0.8154297,1.1552734  c0.0932617,0.5439453,0.6064453,0.9101562,1.1552734,0.8154297c6.0771484-1.0458984,12.0922852-0.6738281,17.8798828,1.1088867  c0.0981445,0.0302734,0.1972656,0.0449219,0.2949219,0.0449219c0.4272461-0.0004883,0.8227539-0.2763672,0.9550781-0.7060547  c0.1625977-0.527832-0.1333008-1.0874023-0.6611328-1.25C83.1040039,39.1723633,76.7753906,38.7797852,70.387207,39.8803711z"></path><path xmlns="http://www.w3.org/2000/svg" d="M37.4882812,41.9897461c-1.078125-0.3930664-2.1767578-0.7490234-3.2646484-1.0581055  c-0.53125-0.1523438-1.0844727,0.1572266-1.2353516,0.6884766s0.1572266,1.0844727,0.6884766,1.2353516  c1.0419922,0.2958984,2.09375,0.637207,3.1269531,1.0131836c0.1132812,0.0415039,0.2285156,0.0610352,0.3422852,0.0610352  c0.4082031,0,0.7919922-0.2524414,0.9394531-0.6582031C38.2744141,42.7524414,38.0073242,42.1787109,37.4882812,41.9897461z"></path><path xmlns="http://www.w3.org/2000/svg" d="M64.6513672,34.2285156c0.1904297,0.3007812,0.5151367,0.4658203,0.8466797,0.4658203  c0.1826172,0,0.3671875-0.0498047,0.5332031-0.1542969c5.2133789-3.2924805,10.9135742-5.25,16.9428711-5.8183594  c0.5498047-0.0517578,0.9536133-0.5395508,0.9018555-1.0893555s-0.5439453-0.9575195-1.0893555-0.9018555  c-6.3452148,0.5981445-12.3417969,2.6567383-17.8237305,6.1181641  C64.4960938,33.1435547,64.3564453,33.7612305,64.6513672,34.2285156z"></path><path xmlns="http://www.w3.org/2000/svg" d="M40.1547852,39.2856445c0.1918945,0.1757812,0.434082,0.2626953,0.675293,0.2626953  c0.2705078,0,0.5405273-0.1088867,0.737793-0.3242188c0.3730469-0.4072266,0.3457031-1.0395508-0.0615234-1.4130859  c-0.8442383-0.7739258-1.7231445-1.5229492-2.6118164-2.2265625c-0.4321289-0.3427734-1.0620117-0.2700195-1.4047852,0.1635742  c-0.3427734,0.4331055-0.2695312,1.0620117,0.1635742,1.4047852C38.5043945,37.8261719,39.3457031,38.5439453,40.1547852,39.2856445  z"></path><path xmlns="http://www.w3.org/2000/svg" d="M43.8115234,41.6113281c-0.4233398,0.3544922-0.4785156,0.9853516-0.1235352,1.4086914  c0.8740234,1.0424805,1.703125,2.1201172,2.4643555,3.2026367c0.1943359,0.2768555,0.5039062,0.4248047,0.8188477,0.4248047  c0.1987305,0,0.3994141-0.059082,0.5742188-0.1821289c0.4516602-0.3173828,0.5605469-0.9414062,0.2426758-1.3930664  c-0.793457-1.1289062-1.6572266-2.2514648-2.5678711-3.3374023C44.8657227,41.3125,44.2353516,41.2563477,43.8115234,41.6113281z"></path><path xmlns="http://www.w3.org/2000/svg" d="M57.5009766,29.8217773c0.175293,0.1235352,0.3764648,0.1831055,0.5756836,0.1831055  c0.3139648,0,0.6230469-0.1474609,0.8178711-0.4233398c3.5561523-5.0361328,8.0737305-9.0263672,13.4267578-11.8588867  c0.4882812-0.2583008,0.6743164-0.8632812,0.4160156-1.3515625c-0.2578125-0.487793-0.8632812-0.6743164-1.3515625-0.4160156  C65.7524414,18.9360352,61,23.1323242,57.2607422,28.4282227C56.9423828,28.8793945,57.0498047,29.503418,57.5009766,29.8217773z"></path><path xmlns="http://www.w3.org/2000/svg" d="M45.0043945,36.3334961c0.1694336,0.3637695,0.5302734,0.5776367,0.9067383,0.5776367  c0.1416016,0,0.2851562-0.0297852,0.421875-0.09375c0.5004883-0.2329102,0.7172852-0.828125,0.4838867-1.3286133  c-0.4853516-1.0419922-1.0107422-2.0703125-1.5605469-3.0571289c-0.2685547-0.4819336-0.8764648-0.6542969-1.3608398-0.3862305  c-0.4819336,0.269043-0.6552734,0.878418-0.3862305,1.3608398C44.0361328,34.3500977,44.5390625,35.3354492,45.0043945,36.3334961z"></path></g><g id="SvgjsG1008" featurekey="nameFeature-0" transform="matrix(1.1616569884074481,0,0,1.1616569884074481,118.18491095561336,21.788201531250948)" fill="#233142"><path d="M1.5625 8.515999999999998 l18.887 0 l0 6.2891 l-12.578 0 l0 6.3086 l9.4336 0 l0 6.2891 l-9.4336 0 l0 6.2891 l0 6.3086 l-6.3086 0 l0 -12.598 l0 -6.2891 l0 -12.598 z M27.63709375 29.59 l5.5664 0 l-2.7734 -6.543 z M25.05859375 35.1562 l-0.078125 0.23438 l-2.0508 4.5313 l-1.0938 0 l-0.25391 0 l-4.1016 0 l-1.3477 0 l14.277 -31.992 l14.316 31.992 l-1.3477 0 l-4.1016 0 l-0.27344 0 l-1.0938 0 l-2.0313 -4.5508 l-0.097656 -0.21484 l-10.723 0 z M66.62153125 8.515999999999998 l-14.18 32.07 l-14.141 -32.07 l1.25 0 l4.1406 0 l0.25391 0 l1.0156 0 l7.4609 17.168 l7.4609 -17.168 l1.3281 0 l5.4102 0 z M68.96484375 8.515999999999998 l18.887 0 l0 6.2891 l-12.578 0 l0 6.3086 l9.4336 0 l0 6.2891 l-9.4336 0 l0 6.2891 l12.578 0 l0 6.3086 l-12.578 0 l-6.3086 0 l0 -31.484 z M105.89875 8.359000000000002 l0.019531 0.058594 c2.1875 0 4.2383 0.41016 6.1719 1.25 s3.6328 1.9727 5.0977 3.3984 l-4.4922 4.4922 c-1.8945 -1.875 -4.1406 -2.8125 -6.7383 -2.8125 c-2.6367 0 -4.8828 0.9375 -6.7383 2.8125 s-2.793 4.1211 -2.793 6.7383 c0 2.6367 0.9375 4.8828 2.793 6.7383 s4.1016 2.793 6.7383 2.793 c2.0703 0 3.9258 -0.58594 5.5469 -1.7773 s2.7734 -2.7148 3.4375 -4.5703 l-9.0039 0 l0 -6.3477 l9.0039 0 l3.6914 0 l2.8906 0 c0.21484 0.99609 0.3125 2.0508 0.3125 3.1641 c0 4.375 -1.5625 8.125 -4.6875 11.23 s-6.875 4.668 -11.25 4.668 s-8.125 -1.5625 -11.23 -4.668 s-4.668 -6.8555 -4.668 -11.23 s1.5625 -8.125 4.668 -11.25 s6.8555 -4.6875 11.23 -4.6875 z M124.140625 40 l0 -31.484 l6.3086 0 l0 31.484 l-6.3086 0 z M133.57421875 8.515999999999998 l18.887 0 l0 6.2891 l-12.578 0 l0 6.3086 l9.4336 0 l0 6.2891 l-9.4336 0 l0 6.2891 l0 6.3086 l-6.3086 0 l0 -12.598 l0 -6.2891 l0 -12.598 z M164.1601875 33.7891 l-0.019531 -0.039063 c1.7383 0 3.1836 -1.4453 3.1836 -3.1836 c0 -1.3477 -0.52734 -2.207 -1.6016 -2.5977 c-2.2656 -0.83984 -1.7188 -0.64453 -3.9258 -1.4063 c-2.3242 -0.80078 -4.4727 -2.3828 -5.918 -4.3555 c-0.85938 -1.1719 -1.2891 -2.6172 -1.2891 -4.3555 c0 -2.6172 0.9375 -4.8633 2.8125 -6.7383 s4.1211 -2.8125 6.7578 -2.8125 c2.6172 0 4.8633 0.9375 6.7383 2.8125 s2.8125 4.1211 2.8125 6.7383 l-6.3477 0 c0 -1.7188 -1.4453 -3.1641 -3.1641 -3.1641 c-1.7383 0 -3.1836 1.4453 -3.1836 3.1836 c0 1.1328 0.44922 1.9922 1.3672 2.5781 c1.875 1.2109 1.6602 0.97656 3.9063 1.6406 c2.4219 0.70313 4.6094 2.207 6.1133 4.1406 c0.87891 1.1328 1.3281 2.5977 1.3281 4.375 c0 2.6367 -0.9375 4.8828 -2.8125 6.7578 s-4.1211 2.8125 -6.7383 2.8125 c-2.6367 0 -4.8828 -0.9375 -6.7578 -2.8125 s-2.8125 -4.1211 -2.8125 -6.7578 l6.3672 0 c0 1.7578 1.4258 3.1836 3.1836 3.1836 z"></path></g></svg>
                